# xmcd CD database file
#
# Track frame offsets:
#	150
#	15548
#	31098
#	55585
#
# Disc length: 962 seconds
#
# Revision: 1
# Processed by: cddbd v1.5.1PL2 Copyright (c) Steve Scherf et al.
# Submitted via: CDex 1.51
#
DISCID=2003c004
DTITLE=Grind Orchestra - Jolly Throats EP
DYEAR=1992
DGENRE=Rock
TTITLE0=Jolly Throats.
TTITLE1=Jolly Throats. (Chi-Chi, Ta-Ta Mix)
TTITLE2=Flu. Crew. Junction.
TTITLE3=Flu. Crew. Junction. (Swingin' Galaxie Mix)
EXTD=YEAR: 1992
EXTT0=
EXTT1=
EXTT2=
EXTT3=
PLAYORDER=
